<svg width="140" height="140" viewBox="0 0 140 140" fill="none"
    xmlns="http://www.w3.org/2000/svg">
    <g clip-path="url(#clip0_4008_33517)">
        <circle cx="65.3333" cy="72.8675" r="64.4" fill="white" stroke="#0C0C0C" stroke-width="1.86667"/>
        <path d="M95.1856 58.939C95.1761 58.8235 95.1572 58.7128 95.1193 58.6069C95.1003 58.5588 95.0813 58.5155 95.0624 58.4722C95.0197 58.3856 94.9629 58.3037 94.8965 58.2267C94.8681 58.1882 94.8396 58.1546 94.8112 58.1209C94.797 58.1064 94.7875 58.092 94.7733 58.0776L77.7866 43.2936C77.5686 43.1059 77.289 43 76.9998 43H35.7465C35.7276 43 35.7086 43.0096 35.6897 43.0096C35.628 43.0096 35.5712 43.0241 35.5143 43.0337C35.4527 43.0481 35.3958 43.0577 35.3389 43.0818C35.32 43.0866 35.301 43.0866 35.2821 43.0914C35.2441 43.1107 35.2157 43.1347 35.1825 43.154C35.1304 43.1829 35.0735 43.2117 35.0261 43.2502C34.9787 43.2839 34.9361 43.3272 34.8982 43.3706C34.8555 43.4091 34.8128 43.4524 34.7797 43.5005C34.7417 43.5486 34.7133 43.6016 34.6849 43.6593C34.6659 43.693 34.6422 43.7219 34.6233 43.7604C34.6185 43.7796 34.6185 43.7989 34.6138 43.8181C34.5901 43.8759 34.5806 43.9336 34.5664 43.9962C34.5569 44.0539 34.5427 44.1117 34.5427 44.1742C34.5427 44.1935 34.5332 44.2127 34.5332 44.232V86.12C34.5332 86.4135 34.6375 86.6975 34.8271 86.9188L49.387 104.167C49.3965 104.181 49.4107 104.186 49.4202 104.196C49.5055 104.287 49.6098 104.359 49.7188 104.422C49.7567 104.446 49.7804 104.475 49.8184 104.494C49.97 104.561 50.1312 104.6 50.3065 104.6H93.9865C94.6595 104.6 95.1998 104.051 95.1998 103.368V59.016C95.1998 58.9871 95.1856 58.9679 95.1856 58.939ZM76.5496 45.464L90.7067 57.784H50.8089L38.6756 45.464H76.5496ZM92.7732 102.136H51.5199V60.248H92.7732V102.136Z" fill="#0C0C0C"/>
        <path fill-rule="evenodd" clip-rule="evenodd" d="M122.698 1L112.961 10.1619L87.7334 36.0881V37.4763V49.1044V53.2666H91.8397H103.312H105.035L140 17.813L122.698 1ZM117.324 11.6446L128.796 23.2728L134.109 17.8879L122.637 6.25981L117.324 11.6446Z" fill="#4accb4"/>
    </g>
    <defs>
        <clipPath id="clip0_4008_33517">
            <rect width="140" height="140" fill="white"/>
        </clipPath>
    </defs>
</svg>
